<svg width="238" height="48" viewBox="0 0 238 48" fill="none" xmlns="http://www.w3.org/2000/svg">
<path d="M96.3919 3.41683C98.9465 5.69682 100.224 8.83049 100.224 12.8178C100.224 16.8052 98.9465 19.9294 96.3919 22.1904C93.8394 24.4494 90.3134 25.5788 85.8141 25.5788H76.3388V37.383H72.6083V0H85.8141C90.3154 0 93.8413 1.13894 96.3919 3.41683ZM93.7102 19.6799C95.5576 18.061 96.4813 15.7736 96.4813 12.8178C96.4813 9.79259 95.5576 7.46945 93.7102 5.8484C91.8628 4.22735 89.1921 3.41683 85.6979 3.41683H76.3358V22.1052H85.7098C89.202 22.1052 91.8728 21.2968 93.7222 19.6799H93.7102Z" fill="#F2F2F2"/>
<path d="M112.035 10.5223C113.698 9.55808 115.755 9.07703 118.206 9.07914V12.7644L117.351 12.7107C114.57 12.7107 112.385 13.6191 110.796 15.436C109.206 17.2528 108.417 19.798 108.427 23.0717V37.3864H104.851V9.28124H108.278V14.7949C109.057 12.9743 110.376 11.4737 112.035 10.5223Z" fill="#F2F2F2"/>
<path d="M139.833 11.8294C141.68 13.6652 142.604 16.3799 142.604 19.9736V37.3862H139.177V33.0062C138.341 34.4951 137.104 35.6851 135.625 36.423C134.062 37.2441 132.206 37.6535 130.056 37.6514C127.1 37.6514 124.748 36.9041 123 35.4093C122.155 34.709 121.477 33.8074 121.021 32.7776C120.566 31.7479 120.345 30.6188 120.378 29.482C120.378 27.0967 121.193 25.1736 122.822 23.7125C124.451 22.2515 127.046 21.522 130.608 21.5241H139.022V19.8157C139.022 17.3926 138.384 15.5494 137.109 14.2863C135.834 13.0231 133.969 12.3915 131.513 12.3915C129.867 12.3829 128.231 12.6778 126.68 13.2631C125.22 13.7974 123.869 14.6216 122.699 15.6915L121.087 12.8494C122.512 11.5908 124.155 10.6383 125.923 10.0452C127.847 9.37951 129.859 9.04578 131.883 9.05681C135.337 9.07155 137.987 9.99576 139.833 11.8294ZM135.801 33.1925C137.275 32.1775 138.404 30.6906 139.025 28.9483V24.3536H130.712C126.177 24.3536 123.909 26.0273 123.909 29.3746C123.882 30.1236 124.029 30.8682 124.337 31.5431C124.644 32.218 125.103 32.8028 125.673 33.2462C126.847 34.1893 128.493 34.6609 130.61 34.6609C132.629 34.6609 134.359 34.1715 135.801 33.1925Z" fill="#F2F2F2"/>
<path d="M174.957 9.29354V33.9661C174.957 38.7366 173.856 42.2713 171.655 44.5702C169.454 46.8692 166.137 48.0123 161.703 47.9997C159.334 48.0136 156.979 47.6266 154.725 46.8534C152.524 46.085 150.736 45.026 149.361 43.6766L151.176 40.7903C152.538 42.0553 154.123 43.0213 155.839 43.6324C157.694 44.3125 159.645 44.6552 161.608 44.646C164.965 44.646 167.434 43.8187 169.015 42.1639C170.596 40.5092 171.386 37.9366 171.384 34.4461V30.8714C170.308 32.6201 168.8 34.0234 167.025 34.9292C165.165 35.869 163.126 36.3444 161.066 36.3187C158.704 36.3499 156.374 35.7528 154.287 34.5819C152.295 33.4667 150.638 31.7833 149.501 29.7219C148.325 27.5743 147.724 25.1278 147.761 22.6451C147.722 20.1711 148.324 17.7332 149.501 15.5967C150.637 13.5543 152.288 11.8886 154.269 10.7872C156.367 9.62778 158.705 9.04063 161.071 9.07881C163.179 9.04598 165.265 9.54041 167.159 10.522C168.952 11.4612 170.468 12.9014 171.545 14.6872V9.29354H174.957ZM166.59 31.645C168.096 30.8141 169.347 29.5443 170.195 27.9851C171.066 26.3587 171.509 24.5147 171.479 22.6451C171.511 20.7832 171.067 18.947 170.195 17.3304C169.345 15.7909 168.107 14.5333 166.62 13.6988C165.009 12.8434 163.233 12.3959 161.432 12.3915C159.63 12.3872 157.853 12.826 156.238 13.6735C154.743 14.4958 153.502 15.7564 152.663 17.3051C151.788 18.9304 151.341 20.7743 151.367 22.6451C151.337 24.5147 151.78 26.3587 152.651 27.9851C153.492 29.5388 154.732 30.8079 156.227 31.645C157.817 32.5325 159.593 32.9821 161.39 32.9524C163.199 32.9821 164.986 32.5327 166.59 31.645Z" fill="#F2F2F2"/>
<path d="M206.857 9.29385V37.399H203.427V32.258C202.514 33.9431 201.172 35.3219 199.554 36.2369C197.815 37.2044 195.874 37.691 193.91 37.6516C190.452 37.6516 187.723 36.6285 185.722 34.5822C183.722 32.5359 182.72 29.5348 182.716 25.5791V9.29385H186.291V25.2096C186.291 28.1569 186.981 30.4001 188.359 31.939C189.738 33.478 191.702 34.2432 194.253 34.2348C197.034 34.2348 199.235 33.3359 200.856 31.538C202.477 29.7401 203.283 27.239 203.275 24.0349V9.29385H206.857Z" fill="#F2F2F2"/>
<path d="M237.947 24.5149H215.775C215.974 27.437 217.032 29.796 218.948 31.5917C220.865 33.3875 223.285 34.2865 226.207 34.2886C227.764 34.3024 229.307 33.9801 230.742 33.3412C232.113 32.7203 233.336 31.7803 234.318 30.5907L236.332 33.0475C235.146 34.5493 233.632 35.7221 231.922 36.4644C230.076 37.2644 228.097 37.6639 226.103 37.6391C223.583 37.6919 221.093 37.0579 218.871 35.798C216.816 34.617 215.114 32.8505 213.958 30.6981C212.762 28.4508 212.154 25.9068 212.194 23.3276C212.154 20.7582 212.735 18.2207 213.883 15.9571C214.957 13.847 216.563 12.0945 218.522 10.895C220.545 9.70407 222.822 9.07913 225.136 9.07913C227.45 9.07913 229.726 9.70407 231.749 10.895C233.689 12.0976 235.276 13.8465 236.335 15.9476C237.471 18.2248 238.043 20.7708 237.997 23.3465L237.947 24.5149ZM218.722 14.9276C216.992 16.6539 216.01 18.9065 215.775 21.6855H234.571C234.336 18.9065 233.354 16.6539 231.624 14.9276C229.894 13.2013 227.735 12.3381 225.149 12.3381C222.595 12.3381 220.452 13.2013 218.722 14.9276Z" fill="#F2F2F2"/>
<path d="M33.1189 22.8852L33.116 22.7399V22.8852H33.1189Z" fill="#409BDD"/>
<path d="M57.463 5.44066C54.2301 2.01752 49.7785 0.132263 44.9067 0.132263C39.6059 0.132263 34.8623 2.29857 31.5847 6.23645C30.4375 7.6144 29.4978 9.17165 28.7987 10.8533C27.7389 13.3461 27.1982 16.0517 27.2135 18.7859C27.2135 19.0164 27.2135 20.5827 27.2135 21.628H33.1043V22.2595C33.1043 21.5238 33.1043 19.5943 33.1043 18.9753V18.8048C33.0778 16.2086 33.7709 13.6612 35.0977 11.4785C36.1336 9.66839 37.6189 8.19474 39.3914 7.21855C41.1052 6.3192 42.9944 5.85946 44.9067 5.87645C51.7421 5.87645 56.7032 11.3049 56.7032 18.7859C56.7032 26.2669 51.7421 31.6953 44.9067 31.6953C42.857 31.638 40.8449 31.0987 39.0159 30.1164L38.6316 29.9111L34.5643 34.2058L35.2288 34.6195C38.1674 36.4301 41.4989 37.4017 44.8978 37.4395C49.7695 37.4395 54.2301 35.5448 57.4541 32.1311C60.6781 28.7174 62.4599 23.9648 62.4599 18.7859C62.4599 13.6069 60.69 8.86381 57.463 5.44066Z" fill="#409BDD"/>
<path d="M33.11 22.2438V21.6122H17.8422V27.2048H26.8616C24.6746 30.1543 21.3433 31.8216 17.5621 31.8216C13.9269 31.8216 10.8191 30.2869 8.70955 27.7164C6.85322 25.468 5.76564 22.4206 5.76564 18.9122C5.76564 11.4343 10.7268 5.99962 17.5621 5.99962C18.9824 5.99261 20.3934 6.24361 21.7336 6.74172L22.124 6.89961C23.8134 7.62277 24.6954 8.27329 25.7919 9.61855L29.7966 5.36804L29.4152 4.96699C28.6568 4.13415 27.785 3.42631 26.8289 2.867C26.7723 2.83542 25.4642 2.0649 24.7431 1.73963L23.7807 1.35121C21.7803 0.620559 19.678 0.252249 17.5621 0.261745C12.6904 0.261745 8.22982 2.15647 5.00583 5.56699C1.78184 8.9775 0 13.7333 0 18.9122C0 23.9395 1.67755 28.5469 4.72574 31.9448C4.81811 32.049 4.9075 32.1564 5.00583 32.2606C8.22982 35.6837 12.6904 37.5784 17.5621 37.5784C21.0983 37.6207 24.5683 36.5611 27.541 34.5311V37.929H33.116V22.7364L33.11 22.2438ZM32.5141 22.2438V22.5122C32.5141 22.4711 32.5141 22.3764 32.5141 22.2438Z" fill="#14D1B7"/>
<path d="M32.5201 22.522V22.2536C32.5171 22.3862 32.5201 22.4809 32.5201 22.522Z" fill="#14D1B7"/>
</svg>
