<svg width="17" height="17" viewBox="0 0 17 17" fill="none" xmlns="http://www.w3.org/2000/svg">
<circle cx="8.5" cy="8.5" r="8.5" fill="#F2F2F2"/>
<path d="M9.488 9.0368L13.31 9.0368C13.5793 9.0368 13.798 8.79627 13.798 8.5C13.798 8.20373 13.5793 7.9632 13.31 7.9632L9.488 7.9632H8.512L4.69 7.9632C4.42067 7.9632 4.202 8.20373 4.202 8.5C4.202 8.79627 4.42067 9.0368 4.69 9.0368L8.512 9.0368H9.488Z" fill="#14D2B8"/>
<mask id="mask0" mask-type="alpha" maskUnits="userSpaceOnUse" x="4" y="7" width="10" height="3">
<path d="M9.488 9.0368L13.31 9.0368C13.5793 9.0368 13.798 8.79627 13.798 8.5C13.798 8.20373 13.5793 7.9632 13.31 7.9632L9.488 7.9632H8.512L4.69 7.9632C4.42067 7.9632 4.202 8.20373 4.202 8.5C4.202 8.79627 4.42067 9.0368 4.69 9.0368L8.512 9.0368H9.488Z" fill="white"/>
</mask>
<g mask="url(#mask0)">
</g>
</svg>
