<svg width="55" height="55" viewBox="0 0 55 55" fill="none" xmlns="http://www.w3.org/2000/svg">
<path d="M0 6.11111C0 2.73625 2.73625 0 6.11111 0H48.8889C52.2637 0 55 2.73625 55 6.11111V48.8889C55 52.2638 52.2637 55 48.8889 55H6.11111C2.73625 55 0 52.2638 0 48.8889V6.11111Z" fill="#3B88C3"/>
<path d="M31.1392 12.3307C31.1392 14.462 29.4357 16.2617 27.3029 16.2617C25.2664 16.2617 23.4667 14.4146 23.4667 12.3307C23.4667 10.3889 25.2664 8.58768 27.3029 8.58768C29.3395 8.5892 31.1392 10.3416 31.1392 12.3307ZM23.8914 22.6096C23.8914 20.3363 25.3138 18.8192 27.3014 18.8192C29.2906 18.8192 30.7114 20.3348 30.7114 22.6096V40.7993C30.7114 43.0727 29.2906 44.5882 27.3014 44.5882C25.3122 44.5882 23.8914 43.0727 23.8914 40.7993V22.6096Z" fill="white"/>
</svg>
