<svg width="55" height="55" viewBox="0 0 55 55" fill="none" xmlns="http://www.w3.org/2000/svg">
<path d="M27.5 55C42.6878 55 55 42.6878 55 27.5C55 12.3122 42.6878 0 27.5 0C12.3122 0 0 12.3122 0 27.5C0 42.6878 12.3122 55 27.5 55Z" fill="#F4900C"/>
<path d="M27.5 49.6528C39.7346 49.6528 49.6528 39.7346 49.6528 27.5C49.6528 15.2654 39.7346 5.34723 27.5 5.34723C15.2654 5.34723 5.34723 15.2654 5.34723 27.5C5.34723 39.7346 15.2654 49.6528 27.5 49.6528Z" fill="#FFD983"/>
<path d="M27.5 47.3611C38.469 47.3611 47.3611 38.469 47.3611 27.5C47.3611 16.531 38.469 7.63885 27.5 7.63885C16.531 7.63885 7.63892 16.531 7.63892 27.5C7.63892 38.469 16.531 47.3611 27.5 47.3611Z" fill="#F5F8FA"/>
<path d="M27.5 12.2222L29.839 21.8533L38.3029 16.6971L33.1467 25.161L42.7778 27.5L33.1467 29.839L38.3029 38.3029L29.839 33.1467L27.5 42.7778L25.161 33.1467L16.6971 38.3029L21.8533 29.839L12.2222 27.5L21.8533 25.161L16.6971 16.6971L25.161 21.8533L27.5 12.2222Z" fill="#CCD6DD"/>
<path d="M26.4963 31.6983L39.9056 39.9193L31.6877 26.5084L26.4963 31.6983Z" fill="#292F33"/>
<path d="M28.5038 23.3245L15.093 15.1036L23.3124 28.5159L28.5038 23.3245Z" fill="#DD2E44"/>
<path d="M27.4999 32.1796C30.0776 32.1796 32.1672 30.0899 32.1672 27.5122C32.1672 24.9345 30.0776 22.8448 27.4999 22.8448C24.9222 22.8448 22.8325 24.9345 22.8325 27.5122C22.8325 30.0899 24.9222 32.1796 27.4999 32.1796Z" fill="#8899A6"/>
<path d="M27.5001 30.03C28.8906 30.03 30.0179 28.9028 30.0179 27.5122C30.0179 26.1217 28.8906 24.9944 27.5001 24.9944C26.1095 24.9944 24.9823 26.1217 24.9823 27.5122C24.9823 28.9028 26.1095 30.03 27.5001 30.03Z" fill="#F5F8FA"/>
</svg>
