<svg width="17" height="17" viewBox="0 0 17 17" fill="none" xmlns="http://www.w3.org/2000/svg">
<circle cx="8.5" cy="8.5" r="8.5" fill="#14D2B8" fill-opacity="0.6"/>
<rect x="4" y="4" width="10" height="9" fill="#FF0000" fill-opacity="0.01"/>
<path d="M9.46026 8.91233L13.065 8.91233C13.319 8.91233 13.5253 8.72687 13.5253 8.49845C13.5253 8.27002 13.319 8.08456 13.065 8.08456L9.46026 8.08456L9.46026 4.84302C9.46026 4.61459 9.25402 4.42913 9 4.42913C8.74598 4.42913 8.53974 4.61459 8.53974 4.84302L8.53974 8.08456L4.935 8.08456C4.68097 8.08456 4.47473 8.27002 4.47473 8.49845C4.47473 8.72687 4.68097 8.91233 4.93499 8.91233L8.53974 8.91233L8.53974 12.1539C8.53974 12.3823 8.74598 12.5678 9 12.5678C9.25402 12.5678 9.46026 12.3823 9.46026 12.1539L9.46026 8.91233Z" fill="black"/>
<mask id="mask0" mask-type="alpha" maskUnits="userSpaceOnUse" x="4" y="4" width="10" height="9">
<path d="M9.46026 8.91233L13.065 8.91233C13.319 8.91233 13.5253 8.72687 13.5253 8.49845C13.5253 8.27002 13.319 8.08456 13.065 8.08456L9.46026 8.08456L9.46026 4.84302C9.46026 4.61459 9.25402 4.42913 9 4.42913C8.74598 4.42913 8.53974 4.61459 8.53974 4.84302L8.53974 8.08456L4.935 8.08456C4.68097 8.08456 4.47473 8.27002 4.47473 8.49845C4.47473 8.72687 4.68097 8.91233 4.93499 8.91233L8.53974 8.91233L8.53974 12.1539C8.53974 12.3823 8.74598 12.5678 9 12.5678C9.25402 12.5678 9.46026 12.3823 9.46026 12.1539L9.46026 8.91233Z" fill="white"/>
</mask>
<g mask="url(#mask0)">
<rect x="4" y="4" width="10" height="9" fill="white"/>
</g>
</svg>
