<svg width="42" height="58" viewBox="0 0 42 58" fill="none" xmlns="http://www.w3.org/2000/svg">
<path d="M23.3302 34.9037C23.3302 33.3974 23.8937 31.9495 24.915 30.8423C29.0781 26.3291 40.0938 14.4017 41.4006 13.1403C43.0162 11.5808 40.3838 9.50043 37.1541 9.50043H4.84627C3.23066 9.50043 -1.59174 10.6798 0.830952 13.4105C2.22153 14.9756 13.1414 26.4101 17.3635 30.8268C18.4314 31.944 19.0219 33.4238 19.0219 34.9693V45.4664C19.0219 47.6137 17.8745 49.5956 16.0189 50.6762C14.098 51.7948 11.8378 53.1252 11.1263 53.6014C9.71319 54.5105 10.6524 55.9665 11.2168 56.2172C12.1589 56.6346 14.4523 58 20.9535 58C27.6184 58 29.8601 56.5214 30.6687 56.2172C30.9803 56.1007 32.6031 54.7095 30.6845 53.4299C29.2222 52.4546 27.6639 51.4909 26.3598 50.7076C24.5012 49.5913 23.3302 47.5956 23.3302 45.4275V34.9037Z" fill="#8899A6"/>
<path d="M42 11.8332C42 9.20922 32.5979 7.08514 21 7.08514C9.40211 7.08514 0 9.20922 0 11.8332C0 12.8568 1.44463 13.8022 3.8851 14.5765C4.8816 14.8926 5.81712 15.39 6.57414 16.1111C10.5435 19.8917 16.2104 25.1594 19.2465 27.9716C20.539 29.1704 22.3126 28.9795 23.269 28.1706C23.9326 27.6104 31.3823 20.3763 35.8901 15.9921C36.6277 15.2748 37.5419 14.7805 38.5158 14.4488C40.7151 13.6995 42 12.8011 42 11.8332Z" fill="#CCD6DD"/>
<path d="M20.2691 26.5384C19.9287 26.3362 20.1973 25.2442 20.6252 24.3901L31.3212 0.903854C31.7521 0.0480755 32.7142 -0.252822 33.4725 0.230879C34.2322 0.71458 34.4979 1.79846 34.0699 2.65424L21.6233 25.1164C21.4079 25.5435 20.6554 26.7665 20.2691 26.5384Z" fill="#662113"/>
</svg>
