<svg width="56" height="54" viewBox="0 0 56 54" fill="none" xmlns="http://www.w3.org/2000/svg">
<path d="M56 27C56 41.9115 43.4638 54 28 54C12.5362 54 0 41.9115 0 27C0 12.0885 12.5362 0 28 0C43.4638 0 56 12.0885 56 27Z" fill="#E1E8ED"/>
<path d="M46.6666 27C46.6666 36.942 38.3102 45 27.9999 45C17.6897 45 9.33328 36.942 9.33328 27C9.33328 17.058 17.6897 9 27.9999 9C38.3102 9 46.6666 17.058 46.6666 27Z" fill="#CCD6DD"/>
<path d="M1.55556 3C2.41467 3 3.11111 2.32842 3.11111 1.5C3.11111 0.671572 2.41467 0 1.55556 0C0.696446 0 0 0.671572 0 1.5C0 2.32842 0.696446 3 1.55556 3Z" fill="#99AAB5"/>
<path d="M0 1.5H3.11111V12H0V1.5Z" fill="#99AAB5"/>
<path d="M7.77766 3C8.63677 3 9.33322 2.32842 9.33322 1.5C9.33322 0.671572 8.63677 0 7.77766 0C6.91855 0 6.22211 0.671572 6.22211 1.5C6.22211 2.32842 6.91855 3 7.77766 3Z" fill="#99AAB5"/>
<path d="M6.22211 1.5H9.33322V12H6.22211V1.5Z" fill="#99AAB5"/>
<path d="M13.9999 3C14.859 3 15.5554 2.32842 15.5554 1.5C15.5554 0.671572 14.859 0 13.9999 0C13.1408 0 12.4443 0.671572 12.4443 1.5C12.4443 2.32842 13.1408 3 13.9999 3Z" fill="#99AAB5"/>
<path d="M12.4445 1.5H15.5556V12H12.4445V1.5ZM4.66669 21H10.8889V51H4.66669V21Z" fill="#99AAB5"/>
<path d="M7.7778 54C9.49602 54 10.8889 52.6569 10.8889 51C10.8889 49.3431 9.49602 48 7.7778 48C6.05958 48 4.66669 49.3431 4.66669 51C4.66669 52.6569 6.05958 54 7.7778 54Z" fill="#99AAB5"/>
<path d="M12.4444 12C12.4444 12.828 11.7476 13.5 10.8889 13.5C10.0302 13.5 9.33333 12.828 9.33333 12H6.22222C6.22222 12.828 5.52533 13.5 4.66667 13.5C3.808 13.5 3.11111 12.828 3.11111 12H0C0 17.799 1.55556 22.5 7.77778 22.5C14 22.5 15.5556 17.799 15.5556 12H12.4444Z" fill="#99AAB5"/>
<path d="M1.55556 13.5C2.41467 13.5 3.11111 12.8284 3.11111 12C3.11111 11.1716 2.41467 10.5 1.55556 10.5C0.696446 10.5 0 11.1716 0 12C0 12.8284 0.696446 13.5 1.55556 13.5Z" fill="#99AAB5"/>
<path d="M7.77766 13.5C8.63677 13.5 9.33322 12.8284 9.33322 12C9.33322 11.1716 8.63677 10.5 7.77766 10.5C6.91855 10.5 6.22211 11.1716 6.22211 12C6.22211 12.8284 6.91855 13.5 7.77766 13.5Z" fill="#99AAB5"/>
<path d="M13.9999 13.5C14.859 13.5 15.5554 12.8284 15.5554 12C15.5554 11.1716 14.859 10.5 13.9999 10.5C13.1408 10.5 12.4443 11.1716 12.4443 12C12.4443 12.8284 13.1408 13.5 13.9999 13.5Z" fill="#99AAB5"/>
<path d="M46.6667 21H52.889V51H46.6667V21Z" fill="#99AAB5"/>
<path d="M49.7779 54C51.4961 54 52.889 52.6569 52.889 51C52.889 49.3431 51.4961 48 49.7779 48C48.0596 48 46.6667 49.3431 46.6667 51C46.6667 52.6569 48.0596 54 49.7779 54Z" fill="#99AAB5"/>
<path d="M49.7778 0C51.3333 0 52.8889 1.5 52.8889 4.5V28.5C52.8889 28.5 42 31.5 42 16.5C42 7.5 46.6667 0 49.7778 0Z" fill="#99AAB5"/>
</svg>
