<svg width="49" height="57" viewBox="0 0 49 57" fill="none" xmlns="http://www.w3.org/2000/svg">
<path d="M20.1765 38.6785H28.8236V46.8214H20.1765V38.6785Z" fill="#F4900C"/>
<path d="M41.7942 22.3929C41.7942 36.6429 46.1177 30.5357 46.1177 36.6429C46.1177 36.6429 46.1177 40.7143 43.2353 40.7143H5.76474C2.88239 40.7143 2.88239 36.6429 2.88239 36.6429C2.88239 30.5357 7.20591 36.6429 7.20591 22.3929C7.20591 11.1496 16.5404 6.10718 24.5 6.10718C32.4597 6.10718 41.7942 11.1496 41.7942 22.3929Z" fill="#FFAC33"/>
<path d="M24.5 12.2143C26.8879 12.2143 28.8236 9.48002 28.8236 6.10714C28.8236 2.73426 26.8879 0 24.5 0C22.1122 0 20.1765 2.73426 20.1765 6.10714C20.1765 9.48002 22.1122 12.2143 24.5 12.2143Z" fill="#FFAC33"/>
<path d="M49 52.9286C49 55.176 47.7087 57 46.1176 57H2.88235C1.29129 57 0 55.176 0 52.9286C0 50.6812 1.29129 48.8572 2.88235 48.8572H46.1176C47.7087 48.8572 49 50.6812 49 52.9286Z" fill="#C1694F"/>
<path d="M46.1177 48.8571C46.1177 51.1046 44.8264 52.9286 43.2353 52.9286H5.76474C4.17368 52.9286 2.88239 51.1046 2.88239 48.8571C2.88239 46.6097 4.17368 44.7857 5.76474 44.7857H43.2353C44.8264 44.7857 46.1177 46.6097 46.1177 48.8571Z" fill="#C1694F"/>
</svg>
